# xmcd CD database file
# Copyright (C) 1993-1996 Ti Kan
#
# Track frame offsets:
#	150
#	18207
#	32172
#	46170
#	64635
#	82012
#	95030
#	114392
#	129607
#	147782
#
# Disc length: 2187 seconds
#
# Revision: 1
# Processed by: cddbd v1.4b41PL1 Copyright (c) Steve Scherf et al.
# Submitted via: xmcd 2.0
#
DISCID=8008890a
DTITLE=Ronna Reeves - After The Dance
DYEAR=1900
DGENRE=
TTITLE0=Rodeo Man
TTITLE1=Not Yet But I'm Gettin' There
TTITLE2=I Don't Know Nothin' At All
TTITLE3=Collect From Wichita
TTITLE4=Big Night Out
TTITLE5=My Heart Wasn't In It
TTITLE6=Next Train Out
TTITLE7=Mind Over Matters Of The Heart
TTITLE8=One Way Ticket
TTITLE9=After The Dance
EXTD=
EXTT0=
EXTT1=
EXTT2=
EXTT3=
EXTT4=
EXTT5=
EXTT6=
EXTT7=
EXTT8=
EXTT9=
PLAYORDER=
